<?xml version="1.0" standalone="no"?>
<!DOCTYPE svg PUBLIC "-//W3C//DTD SVG 20010904//EN"
 "http://www.w3.org/TR/2001/REC-SVG-20010904/DTD/svg10.dtd">
<svg version="1.0" xmlns="http://www.w3.org/2000/svg"
 width="72.000000pt" height="65.623013pt" viewBox="0 0 72.000000 65.623013"
 preserveAspectRatio="xMidYMid meet">
<metadata>
Created by potrace 1.12, written by Peter Selinger 2001-2015
</metadata>
<g transform="translate(0.000000,65.623013) scale(0.005450,-0.005450)"
fill="#000000" stroke="none">
<path d="M7380 11880 c-437 -54 -784 -349 -918 -780 -24 -80 -26 -98 -27 -285
0 -233 11 -289 95 -461 110 -227 267 -383 498 -499 180 -89 289 -110 527 -102
173 5 254 26 410 104 115 57 194 114 281 201 309 309 397 771 225 1183 -110
263 -357 491 -635 585 -134 46 -331 69 -456 54z"/>
<path d="M7637 9549 c-225 -39 -315 -78 -1171 -508 l-670 -336 -278 -530
c-153 -291 -394 -752 -536 -1022 -141 -271 -262 -493 -267 -493 -6 0 -65 26
-132 58 l-121 59 50 79 c69 111 101 175 91 185 -18 18 -2927 1436 -3858 1881
-246 117 -249 119 -265 98 -8 -11 -120 -218 -249 -461 l-233 -440 7 -105 7
-104 1959 -980 c1077 -539 1962 -980 1966 -980 4 0 32 39 62 86 29 47 59 88
66 90 7 3 72 -24 143 -60 190 -95 834 -440 934 -499 19 -11 20 -19 14 -122 -4
-60 -9 -136 -13 -169 -5 -54 -4 -58 13 -53 205 59 1357 399 1669 492 515 155
695 213 716 231 9 8 72 118 140 245 l124 230 3 -108 c1 -60 -4 -351 -11 -648
l-13 -540 -401 -765 c-220 -421 -460 -880 -533 -1021 l-134 -255 -1323 -890
c-1121 -753 -1322 -892 -1318 -909 7 -30 531 -1246 538 -1248 5 -2 1589 1099
2916 2025 l333 233 494 1049 c271 577 498 1054 503 1059 5 5 154 -74 362 -194
336 -191 1504 -865 1636 -943 l61 -36 6 -57 c7 -61 102 -1360 181 -2478 26
-357 49 -652 52 -655 2 -3 259 -6 569 -8 l564 -3 0 1939 0 1939 -877 604
c-1300 894 -1855 1279 -1880 1301 -35 33 -61 157 -348 1663 -220 1153 -323
1673 -340 1705 -30 59 -231 201 -389 276 -224 106 -542 142 -819 93z m-300
-1464 c48 -162 183 -703 183 -734 0 -14 -15 -60 -33 -102 -34 -77 -353 -698
-366 -712 -7 -7 -500 -74 -1041 -141 -412 -52 -404 -51 -397 -33 6 15 904
1497 970 1599 l36 57 133 42 c350 110 445 138 463 136 16 -2 26 -22 52 -112z"/>
<path d="M12405 6011 c-191 -55 -363 -222 -426 -412 -33 -102 -34 -252 -2
-354 59 -185 209 -342 389 -407 74 -26 250 -36 333 -18 83 18 208 82 272 139
210 188 267 483 141 733 -72 146 -240 281 -398 322 -82 21 -231 20 -309 -3z"/>
</g>
</svg>
